<svg viewBox="0 0 370 101.39642748776629" height="101.39642748776629" width="370" style="width: 370px; height: 101.396px; position: absolute; top: 50%; left: 50%; z-index: 0; cursor: pointer; overflow: visible; transform: translate(-50%, -50%) scale(0.518919);"><defs id="SvgjsDefs1768"></defs><g id="SvgjsG1769" featurekey="symbolFeature-0" transform="matrix(2.2532906188245834,0,0,2.2532906188245834,-0.6994711221497995,-0.0012377695049695587)" fill="#111111"><g xmlns="http://www.w3.org/2000/svg" transform="translate(0,-1007.3622)"><path style="color:;font-style:normal;font-variant:normal;font-weight:normal;font-stretch:normal;font-size:medium;line-height:normal;font-family:sans-serif;text-indent:0;text-align:start;text-decoration:none;text-decoration-line:none;text-decoration-style:solid;text-decoration-color:;letter-spacing:normal;word-spacing:normal;text-transform:none;direction:ltr;block-progression:tb;writing-mode:lr-tb;baseline-shift:baseline;text-anchor:start;white-space:normal;clip-rule:nonzero;display:inline;overflow:visible;visibility:visible;opacity:1;isolation:auto;mix-blend-mode:normal;color-interpolation:sRGB;color-interpolation-filters:linearRGB;solid-color:;solid-opacity:1;fill:#111111;fill-opacity:1;fill-rule:evenodd;stroke:none;stroke-width:0.99999994px;stroke-linecap:round;stroke-linejoin:round;stroke-miterlimit:4;stroke-dasharray:none;stroke-dashoffset:0;stroke-opacity:1;color-rendering:auto;image-rendering:auto;shape-rendering:auto;text-rendering:auto;enable-background:accumulate" d="m 37.294922,1016.9023 -27.201172,0.2539 -7.8769531,-0.1269 a 0.50004997,0.50004997 0 0 0 -0.5078125,0.498 c 0,0 -0.052759,14.0007 -0.3808594,20.959 -0.2087844,4.4297 -1.015625,13.3301 -1.015625,13.3301 a 0.50004997,0.50004997 0 0 0 0.54882812,0.543 c 0,0 8.72968328,-0.9057 13.07226588,-1.1426 10.049449,-0.5482 30.257812,-0.6602 30.257812,-0.6602 a 0.50004997,0.50004997 0 0 0 0.494141,-0.5664 c 0,0 -1.767588,-13.0957 -3.210938,-19.5996 -0.994739,-4.4824 -3.699218,-13.1386 -3.699218,-13.1386 a 0.50004997,0.50004997 0 0 0 -0.480469,-0.3497 z m -0.373047,1.0039 c 0.140065,0.4505 2.632105,8.4471 3.576172,12.7012 1.365617,6.1536 2.989239,18.0364 3.115234,18.961 -0.739996,0 -19.811314,0.109 -29.734375,0.6504 -4.2076699,0.2295 -11.7958175,1.0183 -12.5253904,1.0937 0.066025,-0.7311 0.7705682,-8.4917 0.9726563,-12.7793 0.3228578,-6.8471 0.3705133,-19.8504 0.3730469,-20.4961 l 7.3847652,0.1191 a 0.50004997,0.50004997 0 0 0 0.01172,0 l 26.826172,-0.25 z"></path><path style="color:;font-style:normal;font-variant:normal;font-weight:normal;font-stretch:normal;font-size:medium;line-height:normal;font-family:sans-serif;text-indent:0;text-align:start;text-decoration:none;text-decoration-line:none;text-decoration-style:solid;text-decoration-color:;letter-spacing:normal;word-spacing:normal;text-transform:none;direction:ltr;block-progression:tb;writing-mode:lr-tb;baseline-shift:baseline;text-anchor:start;white-space:normal;clip-rule:nonzero;display:inline;overflow:visible;visibility:visible;opacity:1;isolation:auto;mix-blend-mode:normal;color-interpolation:sRGB;color-interpolation-filters:linearRGB;solid-color:;solid-opacity:1;fill:#111111;fill-opacity:1;fill-rule:evenodd;stroke:none;stroke-width:0.99999994px;stroke-linecap:butt;stroke-linejoin:miter;stroke-miterlimit:4;stroke-dasharray:none;stroke-dashoffset:0;stroke-opacity:1;color-rendering:auto;image-rendering:auto;shape-rendering:auto;text-rendering:auto;enable-background:accumulate" d="m 20.716797,1007.3652 c -1.852189,-0.039 -3.872231,0.4007 -5.398438,1.5645 -1.248299,0.952 -2.42418,2.4346 -2.484375,4.1308 -0.113889,3.1923 1.220703,8.9024 1.220704,8.9024 l 0.974609,-0.2227 c 0,0 -1.297267,-5.7868 -1.195313,-8.6445 0.04371,-1.2316 1.010894,-2.5467 2.091797,-3.3711 1.279094,-0.9754 3.096771,-1.3944 4.771485,-1.3594 1.60307,0.034 3.364547,0.4344 4.433593,1.4512 1.177178,1.1196 1.463334,3.1073 1.890625,4.9629 0.439749,1.9098 0.496094,6.1875 0.496094,6.1875 l 1,-0.01 c 0,0 -0.01658,-4.2095 -0.521484,-6.4023 -0.409943,-1.7802 -0.649717,-4.0115 -2.175782,-5.4629 -1.358861,-1.2924 -3.356986,-1.6901 -5.103515,-1.7266 z"></path><path style="color:;font-style:normal;font-variant:normal;font-weight:normal;font-stretch:normal;font-size:medium;line-height:normal;font-family:sans-serif;text-indent:0;text-align:start;text-decoration:none;text-decoration-line:none;text-decoration-style:solid;text-decoration-color:;letter-spacing:normal;word-spacing:normal;text-transform:none;direction:ltr;block-progression:tb;writing-mode:lr-tb;baseline-shift:baseline;text-anchor:start;white-space:normal;clip-rule:nonzero;display:inline;overflow:visible;visibility:visible;opacity:1;isolation:auto;mix-blend-mode:normal;color-interpolation:sRGB;color-interpolation-filters:linearRGB;solid-color:;solid-opacity:1;fill:#111111;fill-opacity:1;fill-rule:evenodd;stroke:none;stroke-width:0.99999994px;stroke-linecap:butt;stroke-linejoin:miter;stroke-miterlimit:4;stroke-dasharray:none;stroke-dashoffset:0;stroke-opacity:1;color-rendering:auto;image-rendering:auto;shape-rendering:auto;text-rendering:auto;enable-background:accumulate" d="m 14.478516,1021.4121 c -0.55657,0.075 -1.003117,0.4028 -1.3125,0.7891 -0.379534,0.4737 -0.793314,1.1536 -0.613282,1.9316 0.169623,0.7333 0.767451,1.2316 1.410157,1.4414 0.75518,0.2464 1.528895,0.018 2.125,-0.3066 0.478608,-0.2608 1.027626,-0.6794 1.171875,-1.3711 0.142522,-0.6834 -0.113425,-1.3693 -0.591797,-1.832 -0.59054,-0.5718 -1.436787,-0.7534 -2.189453,-0.6524 z m 0.132812,0.9902 c 0.469164,-0.063 1.065702,0.095 1.361328,0.3809 0.213066,0.2061 0.362476,0.6518 0.308594,0.9102 -0.04427,0.2122 -0.33956,0.5162 -0.671875,0.6972 -0.429319,0.2338 -0.981064,0.3482 -1.335937,0.2324 -0.324234,-0.1058 -0.688418,-0.459 -0.748047,-0.7168 -0.05927,-0.2561 0.135835,-0.7254 0.419921,-1.08 0.174256,-0.2176 0.455903,-0.3956 0.666016,-0.4239 z"></path><path style="color:;font-style:normal;font-variant:normal;font-weight:normal;font-stretch:normal;font-size:medium;line-height:normal;font-family:sans-serif;text-indent:0;text-align:start;text-decoration:none;text-decoration-line:none;text-decoration-style:solid;text-decoration-color:;letter-spacing:normal;word-spacing:normal;text-transform:none;direction:ltr;block-progression:tb;writing-mode:lr-tb;baseline-shift:baseline;text-anchor:start;white-space:normal;clip-rule:nonzero;display:inline;overflow:visible;visibility:visible;opacity:1;isolation:auto;mix-blend-mode:normal;color-interpolation:sRGB;color-interpolation-filters:linearRGB;solid-color:;solid-opacity:1;fill:#111111;fill-opacity:1;fill-rule:evenodd;stroke:none;stroke-width:0.99999994px;stroke-linecap:butt;stroke-linejoin:miter;stroke-miterlimit:4;stroke-dasharray:none;stroke-dashoffset:0;stroke-opacity:1;color-rendering:auto;image-rendering:auto;shape-rendering:auto;text-rendering:auto;enable-background:accumulate" d="m 28.019531,1020.4629 c -0.603677,0.039 -1.140126,0.3498 -1.513672,0.7793 -0.425169,0.4888 -0.686052,1.1466 -0.638671,1.8242 0.03743,0.5314 0.276538,1.0619 0.74414,1.4024 0.498082,0.3629 1.085665,0.3588 1.554688,0.2929 0.510703,-0.072 1.07875,-0.2658 1.478515,-0.7305 0.3819,-0.4438 0.490747,-1.0071 0.480469,-1.5058 -0.01001,-0.4892 -0.125487,-1.0582 -0.548828,-1.4863 -0.414524,-0.4193 -0.991283,-0.6131 -1.556641,-0.5762 z m 0.06445,0.998 c 0.262323,-0.017 0.612426,0.1105 0.78125,0.2813 0.146433,0.1481 0.25319,0.4835 0.259766,0.8047 0.0065,0.3165 -0.08845,0.6579 -0.238281,0.832 -0.164143,0.1908 -0.514077,0.3439 -0.859375,0.3926 -0.328493,0.046 -0.673036,3e-4 -0.826172,-0.1113 -0.160992,-0.1172 -0.318738,-0.4199 -0.335938,-0.6641 -0.02468,-0.353 0.143622,-0.8069 0.396485,-1.0977 0.202596,-0.2329 0.549831,-0.4199 0.822265,-0.4375 z"></path><path style="color:;font-style:normal;font-variant:normal;font-weight:normal;font-stretch:normal;font-size:medium;line-height:normal;font-family:sans-serif;text-indent:0;text-align:start;text-decoration:none;text-decoration-line:none;text-decoration-style:solid;text-decoration-color:;letter-spacing:normal;word-spacing:normal;text-transform:none;direction:ltr;block-progression:tb;writing-mode:lr-tb;baseline-shift:baseline;text-anchor:start;white-space:normal;clip-rule:nonzero;display:inline;overflow:visible;visibility:visible;opacity:1;isolation:auto;mix-blend-mode:normal;color-interpolation:sRGB;color-interpolation-filters:linearRGB;solid-color:;solid-opacity:1;fill:#111111;fill-opacity:1;fill-rule:evenodd;stroke:none;stroke-width:1.00000024px;stroke-linecap:round;stroke-linejoin:round;stroke-miterlimit:4;stroke-dasharray:none;stroke-dashoffset:0;stroke-opacity:1;color-rendering:auto;image-rendering:auto;shape-rendering:auto;text-rendering:auto;enable-background:accumulate" d="m 27.056641,1029.3848 c -0.926422,-0.1267 -1.909145,0.054 -2.726563,0.5058 -0.746862,0.4124 -1.285692,1.085 -1.695312,1.6758 -0.0109,-0.015 -0.0084,-0.012 -0.01953,-0.027 -0.252387,-0.3343 -0.551515,-0.7172 -0.896484,-0.9786 -0.603221,-0.4572 -1.332017,-0.8255 -2.126953,-0.9375 -1.073476,-0.1512 -2.325404,-0.1321 -3.355469,0.4864 -0.975858,0.5856 -1.831154,1.5986 -2.003906,2.7968 -0.237491,1.646 0.666047,3.1987 1.517578,4.3985 0.875569,1.2335 2.50402,2.5198 3.931641,3.5449 1.42762,1.0251 2.654296,1.7656 2.654297,1.7656 a 0.50005012,0.50005012 0 0 0 0.572265,-0.039 c 0,0 3.281884,-2.6428 4.789063,-4.2422 0.979819,-1.0399 2.379318,-2.0796 2.865234,-3.7051 0.339544,-1.1366 0.401722,-2.5681 -0.345703,-3.6523 -0.728162,-1.0563 -2.052178,-1.4406 -3.160156,-1.5918 z m -0.136719,0.9902 c 0.969415,0.1323 2.021446,0.5154 2.472656,1.1699 0.482271,0.6996 0.489462,1.8645 0.210938,2.7969 l 0.002,0 c -0.361576,1.2095 -1.576797,2.1817 -2.636719,3.3066 -1.303168,1.383 -4.073848,3.6299 -4.417969,3.9102 -0.234821,-0.1439 -1.055229,-0.6383 -2.285156,-1.5215 -1.392769,-1.0001 -2.983715,-2.2998 -3.701172,-3.3105 -0.801263,-1.129 -1.514011,-2.4977 -1.34375,-3.6778 0.113748,-0.7889 0.785318,-1.6344 1.53125,-2.082 0.717587,-0.4309 1.755628,-0.4867 2.701172,-0.3535 0.572872,0.081 1.164386,0.3668 1.662109,0.7441 0.163054,0.1236 0.472474,0.4778 0.703125,0.7832 0.225959,0.2993 0.38586,0.5425 0.392579,0.5528 a 0.50005012,0.50005012 0 0 0 0.0039,0.01 c 2.1e-5,0 0.0039,0 0.0039,0 a 0.50005012,0.50005012 0 0 0 0.8125,0.033 0.50005012,0.50005012 0 0 0 0.03516,-0.053 c 0.29381,-0.4997 1.085151,-1.5549 1.746094,-1.9199 a 0.50005012,0.50005012 0 0 0 0.002,0 c 0.613473,-0.3391 1.407852,-0.486 2.105469,-0.3906 z"></path></g></g><g id="SvgjsG1770" featurekey="nameFeature-0" transform="matrix(1.5278283147691876,0,0,1.5278283147691876,116.94458669791578,10.666060222769751)" fill="#111111"><path d="M5.9356 16.301 l0.11664 -0.12051 c2.5394 -2.5667 6.0588 -4.1612 9.9476 -4.1612 c7.7196 0 14 6.2804 14 14 c0 3.7256 -1.4622 7.1088 -3.8422 9.6212 l4.3984 4.3788 l-1.0772 0 l-3.8578 -3.8422 c-2.5083 2.3761 -5.8956 3.8422 -9.6212 3.8422 c-7.7196 0 -14 -6.2804 -14 -14 c0 -3.7722 1.5011 -7.1984 3.9356 -9.7184 z M5.9356 34.614 l0 -17.189 c-1.9794 2.3178 -3.1772 5.316 -3.1772 8.5944 s1.1978 6.2768 3.1772 8.5944 z M18.994 28.477 l6.6268 6.6268 c2.2439 -2.3722 3.6244 -5.5688 3.6244 -9.0844 c0 -7.3032 -5.9424 -13.242 -13.246 -13.242 c-3.6244 0 -6.9144 1.4622 -9.306 3.8306 l0 18.822 c2.3917 2.3683 5.6816 3.8306 9.306 3.8306 c3.5156 0 6.7124 -1.3767 9.0884 -3.6206 l-6.6304 -6.6304 z M46.432 26.834 l11.189 -14.768 l0 27.934 l-0.75172 0 l0 -25.699 l-9.9632 13.155 l-0.46976 0.61832 l-1.9208 2.5363 l-0.46976 0.61832 l-0.47368 -0.61444 l-7.5996 -9.8212 l0 19.207 l-0.75172 0 l0 -27.93 z M44.038000000000004 29.996000000000002 l1.9242 -2.5402 l-9.9896 -13.158 l0 5.2702 z M82.54500000000002 12.776 c-2.6479 0 -4.9692 1.4016 -6.2788 3.4977 l14.441 10.881 l0 4.3886 l-0.16566 0 l0.16566 0.12445 l0 0.18898 c0 4.5008 -3.6618 8.162 -8.1624 8.162 s-8.162 -3.6614 -8.162 -8.162 l0.7568 0 c0 4.0832 3.3219 7.4052 7.4052 7.4052 c4.0212 0 7.3036 -3.2208 7.4036 -7.2176 l-15.566 -11.674 l0 -0.18898 c0 -4.5008 3.6614 -8.162 8.162 -8.162 s8.1624 3.6614 8.1624 8.162 l-0.7568 0 c0 -4.0832 -3.3223 -7.4052 -7.4056 -7.4052 z M89.95100000000001 27.532 l-14.056 -10.591 c-0.45344 0.92752 -0.72604 1.9588 -0.75328 3.0524 l14.809 11.107 l0 -3.568 z M109.40400000000001 12 l0.77777 0 l0 28 l-0.77777 0 l0 -11.628 l-13.222 0 l0 11.628 l-0.77777 0 l0 -28 l0.77777 0 l0 11.628 l13.222 0 l0 -11.628 z M109.40400000000001 27.594 l0 -3.1889 l-13.222 0 l0 3.1889 l13.222 0 z M128.865 12 c7.72 0 14 6.2804 14 14 s-6.28 14 -14 14 s-14 -6.2804 -14 -14 s6.28 -14 14 -14 z M118.8002 34.5928 l0 -17.186 c-1.9791 2.315 -3.1784 5.3156 -3.1784 8.5928 s1.199 6.2776 3.1784 8.5928 z M128.865 39.24328 c7.302 0 13.243 -5.9412 13.243 -13.243 s-5.9412 -13.243 -13.243 -13.243 c-3.6256 0 -6.914 1.4654 -9.308 3.8337 l0 18.819 c2.394 2.3683 5.6828 3.8337 9.308 3.8337 z M156.96200000000002 12.02 c4.78 0 8.6688 3.8881 8.6688 8.6684 s-3.8889 8.6688 -8.6688 8.6688 l-6.3673 0 l0 10.663 l-0.76688 0 l0 -27.233 l-2.3014 0 l0 -0.76726 l9.4356 0 z M150.5944 12.786999999999999 l0 15.803 l3.222 0 l0 -15.803 l-3.222 0 z M156.96200000000002 28.589 c4.3568 0 7.9016 -3.5443 7.9016 -7.9012 s-3.5447 -7.9016 -7.9016 -7.9016 l-2.378 0 l0 15.802 l2.378 0 z"></path></g></svg>